Coordinates
version=1
nRows=11
nColumns=40
inDegrees=yes

Units are S.I. units (second, meters, Newtons, ...)
Angles are in degrees.

endheader
time	pelvis_tilt	pelvis_list	pelvis_rotation	pelvis_tx	pelvis_ty	pelvis_tz	hip_flexion_r	hip_adduction_r	hip_rotation_r	knee_angle_r	knee_angle_r_beta	ankle_angle_r	subtalar_angle_r	mtp_angle_r	hip_flexion_l	hip_adduction_l	hip_rotation_l	knee_angle_l	knee_angle_l_beta	ankle_angle_l	subtalar_angle_l	mtp_angle_l	lumbar_extension	lumbar_bending	lumbar_rotation	arm_flex_r	arm_add_r	arm_rot_r	elbow_flex_r	pro_sup_r	wrist_flex_r	wrist_dev_r	arm_flex_l	arm_add_l	arm_rot_l	elbow_flex_l	pro_sup_l	wrist_flex_l	wrist_dev_l
      4.93000000	     -4.69521795	     -2.76379746	      6.93427538	      0.95473902	      0.92301491	      0.54757104	      4.87279657	      3.52749726	    -15.61104743	     18.55225677	     18.55225677	     19.08835251	     -0.75813628	     -1.04452784	     29.03494722	     -7.45418003	      2.03635524	     19.52086657	     19.52086657	      5.64072620	     -8.00834638	      6.76657089	     -8.74354822	      3.85906286	      4.03824664	     58.49806535	    -19.58003997	     -4.72025767	     99.82646954	     44.72506233	      0.00000000	      0.00000000	    -16.97463814	    -11.14594857	     21.31457337	     36.37157941	     43.53604323	      0.00000000	      0.00000000
      4.94900000	     -4.71745332	     -2.90146534	      7.08035477	      0.95417767	      0.92157829	      0.54533816	      4.46586323	      3.60422396	    -15.65143630	     18.47386394	     18.47386394	     19.56199801	     -0.81328946	     -1.17633284	     29.00709035	     -7.37840283	      2.05674837	     19.64539739	     19.64539739	      5.34679311	     -7.90810592	      6.79048228	     -8.43389087	      3.77564554	      4.19980571	     58.89881753	    -19.61740840	     -4.77270736	     99.91461474	     44.72631082	      0.00000000	      0.00000000	    -17.18666334	    -11.04302842	     21.37110906	     36.34810605	     43.52939051	      0.00000000	      0.00000000
      4.96800000	     -4.53472638	     -3.16478181	      7.19826326	      0.95383014	      0.92029501	      0.54292980	      3.72512696	      3.85364884	    -15.73568828	     18.15327559	     18.15327559	     19.86281086	     -0.62442093	     -1.22467634	     28.96371644	     -7.46365669	      2.17189931	     20.30190830	     20.30190830	      5.13341799	     -7.90454786	      6.36749382	     -8.49519971	      3.83065629	      4.24811232	     59.98234530	    -19.75270776	     -4.99933610	    100.10626784	     44.73506287	      0.00000000	      0.00000000	    -17.37851041	    -10.85629315	     21.55713163	     36.33134645	     43.51626312	      0.00000000	      0.00000000
      4.98700000	     -4.51924570	     -3.32030368	      7.32433568	      0.95355278	      0.91905358	      0.54031027	      3.30427367	      3.91558548	    -15.74425419	     18.14332955	     18.14332955	     20.24141816	     -0.66428143	     -1.33698693	     28.82622051	     -7.40063210	      2.30021086	     20.58740990	     20.58740990	      4.83403225	     -7.80246023	      6.33698621	     -8.27444235	      3.76387030	      4.32422018	     60.08409620	    -19.72593563	     -5.01732280	    100.12887855	     44.73592040	      0.00000000	      0.00000000	    -17.41309275	    -10.77490609	     21.59887044	     36.32270431	     43.51328891	      0.00000000	      0.00000000
      5.00600000	     -4.24811385	     -3.73841215	      7.49130272	      0.95357803	      0.91788171	      0.53751654	      2.51835638	      4.30007471	    -15.90976873	     17.92203253	     17.92203253	     20.45892191	     -0.46845917	     -1.40077490	     28.94474101	     -7.64644590	      2.56987923	     21.84695178	     21.84695178	      4.60437521	     -7.86173959	      4.93509199	     -8.36001452	      4.00681444	      4.30825005	     60.44651869	    -19.63829915	     -5.38963221	    100.05185571	     44.75966777	      0.00000000	      0.00000000	    -17.24192298	    -10.61432972	     21.98452446	     36.02157081	     43.49945783	      0.00000000	      0.00000000
      5.02500000	     -4.08314347	     -3.85863046	      7.58617838	      0.95366927	      0.91706041	      0.53444837	      2.00282226	      4.28095930	    -15.90067213	     18.09503351	     18.09503351	     20.73327905	     -0.55330689	     -1.51728091	     28.81912472	     -7.55507262	      2.81899757	     22.65092498	     22.65092498	      4.47420544	     -8.08271395	      4.35354933	     -8.37778412	      3.88816384	      4.31099159	     60.32701658	    -19.64883936	     -5.56183704	     99.94394979	     44.77194478	      0.00000000	      0.00000000	    -17.10564795	    -10.57477172	     22.13227394	     35.83873058	     43.49819574	      0.00000000	      0.00000000
      5.04400000	     -3.98501061	     -3.99276577	      7.68164002	      0.95386691	      0.91640591	      0.53110618	      1.55928557	      4.23878568	    -15.92024360	     18.26577086	     18.26577086	     20.86300847	     -0.62799494	     -1.70969566	     28.67556012	     -7.43029321	      3.18649698	     23.28466762	     23.28466762	      3.81080255	     -8.70903644	      2.29478997	     -8.29032677	      3.82771499	      4.52485175	     60.03061325	    -19.65186512	     -6.33795853	     99.71875319	     44.82897741	      0.00000000	      0.00000000	    -16.40449194	    -10.45761537	     22.94537628	     34.75188569	     43.51547743	      0.00000000	      0.00000000
      5.06300000	     -3.86092093	     -4.07024267	      7.73758524	      0.95421412	      0.91612474	      0.52755582	      1.05621269	      4.12126774	    -15.91950061	     18.41097454	     18.41097454	     20.94699770	     -0.64916596	     -1.75282621	     28.55092342	     -7.26331082	      3.48482582	     24.13206626	     24.13206626	      4.06892348	     -9.08600813	      2.03226749	     -8.28784601	      3.71201133	      4.51435301	     59.68977220	    -19.68133148	     -6.34234068	     99.57004688	     44.83483262	      0.00000000	      0.00000000	    -16.17265331	    -10.48795652	     22.95016818	     34.79779247	     43.52798524	      0.00000000	      0.00000000
      5.08200000	     -3.80367588	     -4.08298154	      7.76075097	      0.95467116	      0.91610409	      0.52375409	      0.58608425	      3.90898647	    -15.91855808	     18.50568681	     18.50568681	     20.95551833	     -0.66331105	     -1.76067433	     28.38585605	     -7.02035571	      3.74335653	     24.83665458	     24.83665458	      4.43541022	     -9.42186319	      1.79313038	     -8.22321175	      3.56258312	      4.55085423	     59.32910566	    -19.63972974	     -6.34321050	     99.36789641	     44.84091225	      0.00000000	      0.00000000	    -15.82112526	    -10.51808185	     22.92382191	     34.87181766	     43.54112844	      0.00000000	      0.00000000
      5.10100000	     -3.73779737	     -4.11077364	      7.70732313	      0.95526305	      0.91627539	      0.51979245	      0.08703671	      3.68657288	    -15.89240806	     18.57274056	     18.57274056	     20.90222040	     -0.57875408	     -1.76363637	     28.23507234	     -6.80044114	      3.97274405	     25.62115032	     25.62115032	      4.87973058	     -9.93605301	      1.58282663	     -8.16675511	      3.46552124	      4.64227215	     58.88645196	    -19.65148734	     -6.40092412	     99.01105140	     44.85349117	      0.00000000	      0.00000000	    -15.45111513	    -10.62285275	     22.86932632	     34.93427457	     43.55847897	      0.00000000	      0.00000000
      5.12000000	     -3.71332756	     -4.16432164	      7.59847253	      0.95592036	      0.91659049	      0.51566518	     -0.41408912	      3.46272840	    -15.90693708	     18.54460059	     18.54460059	     20.76360772	     -0.33974265	     -1.76728362	     28.08239773	     -6.58414244	      4.21526638	     26.34504386	     26.34504386	      5.38449619	    -10.63069681	      1.50289485	     -8.05903278	      3.41095229	      4.84416809	     58.42539022	    -19.77052439	     -6.56828877	     98.37028509	     44.87909757	      0.00000000	      0.00000000	    -15.01045587	    -10.75693726	     22.77897271	     35.02306325	     43.58440370	      0.00000000	      0.00000000
